<?xml version="1.0" encoding="utf-8"?>
<!-- Generator: Adobe Illustrator 21.0.1, SVG Export Plug-In . SVG Version: 6.00 Build 0)  -->
<svg version="1.1" id="Layer_1" xmlns="http://www.w3.org/2000/svg" xmlns:xlink="http://www.w3.org/1999/xlink" x="0px" y="0px"
	 viewBox="0 0 1920 1080" style="enable-background:new 0 0 1920 1080;" xml:space="preserve" pointer-events="visible"> 
<style type="text/css">
	.st0{fill:#1A1A1A;}
	.st1{fill:#F3BD8D;stroke:#000000;stroke-width:0.75;}
</style>
<path pointer-events="visible" class="st0" d="M1201.8,552.1l-2.2-5.3c-0.7,1.1-1.1,2.7-1.4,5c-2.7,0.6-5,2.1-7.7,2.5c-2.8,0.4-5.6-1-8.4-0.1
	c-5.4,1.7-7.4,2.9-13.6,2.8c-6.4-0.2-13.5,0.3-19.8,1.6c-0.3,0-0.5,0.1-0.8,0.1c-4.9,1.1-7.5-4.1-12.3-3.4c-10,1.4-18.5,12.8-18-4.2
	c0.2-5.7,1.2-12.1-3-16.7c-4.2-4.6,2-9.1-0.7-12.5c0-0.2-0.1-0.3-0.1-0.5c-3.2-0.6-4.1,2.8-7.6,1.5c-0.3-2.3-0.9-4.6-0.7-6.9
	c-5.5-0.5-9.8,5.7-14.7,3.3c-1.4-4.6,4.5-7.2,2.2-12.2c-2.6-5.7-3.6-11.6-6.7-17c-2.8-5-16.5-28.7-23.3-20.8c-2.9,3.4-10,1-12.4-1.9
	c-1.6-1.9-2.7-4.2-4.7-5.9c-1.3-1.1-2.4-1.4-3.6-1.4c-0.3,3-0.8,6.2-0.3,6.8c-7.9,4.5-2.1-4.3-1.1-6.8c-1.1,0.1-2.3,0.2-3.6-0.1
	c-7-1.4-13.9-3-19.5-7.7c-2.2-1.8-8.9-7.9-2.2-8.5c0.4-4.4-0.9-17.9-5.6-19.8c-7.6-3-3.9-8.9,0.5-13.3c4.9-4.9,2.4-13,4.4-19
	c1.1-3.3,2.5-6,2.4-9.6c-0.1-3.2-3-5.2-3.1-8.4c-6.2-0.7-13-6.6-16.4-11.5c-1.7-2.4-2.5-2.9-5.2-2.1c-4.9,1.5-8.6-1-13.4-0.9
	c-0.9,2.7-1.8,6.6-5.3,6.1c0.3-1.9-1.4-5.4-3.9-3.8c-2.1,1.4,0.4,4.5-0.9,6.2c-3.8,5.3-9.6-2.1-8.9-6.4c-1.3,0.2-3-0.5-4.3-0.3
	c0.3-1-0.4-2.7-0.1-3.7c-2.8-0.3-6.8,0.6-9.3-1.1c-0.9-0.6-1.8-4.1-2.4-4.3c-0.9-0.3-1.9-0.3-2.8-0.1c-0.5,2.8-0.3,5.9-0.6,8.8
	c-3.7,1.3-1.7,5.9,0.5,7.7c-6.5,1.9-8.3-6.6-13.8-5.9c-0.1,0.5-0.3,1.2-0.4,1.7c-5.8-1.1-11.9,0.8-17.3-0.5c-0.1-3.3-0.6-8,2.7-10.1
	c2.2-1.4,4.1-1.7,3.3-5c-4.4-1-9.4,0.5-14,0.1c-0.2-5,0.4-10.2,0.2-15.3c-5.6-0.5-10.9,0.1-16.2-1.8c-6.8-2.5-13,1.6-19.7,0.1
	c1-4.7-13-9.4-15.9-12.9c-0.8,1.8-2.5,3.2-4.5,3.6c0.9,5.8,9.8,8.7,4.6,15.2c-1.4,1.8-4.4,1.1-5.4,3c-2,3.7,1.9,2.7,2.1,5.4
	c0.4,3.9,0,16.3-2.5,19.3c-6.5,7.5-12.3,6.2-21.4,7.3c-0.1,2.4,2,3,3.8,4c3.3,1.9,2.9,5.8,5.5,8.2c-0.4,0.4-1.7,1.6-2,1.9
	c-4.6,0.3-11-1.3-13.8,3.5c2.8-6-5.8-7.6-4.8-13.4c-2.3-0.5-4.5-0.1-6.7,0.4c1.3,5.5-3.4,6.1-5.5,10.2c-2.7,5.2,1.7,11.3-5.4,13.7
	c-13.5,4.7,5.4,14.4,4.6,21.4c0.4,0.1,4.8,0.5,4.8,0.4c0.2,4.6-1.8,6.1-5.7,7.8c-6.1,2.6-9.6,8.5-12.6,14.1c-1.1,2-2.9,12-4.4,12.5
	c-4,1.3-8.5-2.2-12.5-0.6c1,3.4-1.1,5.2-4.5,4.6c1,2.1,1.1,4.8-1.4,5.7c-0.5,3.9,1.5,4.6,2.8,7.8c1.9,4.8-0.9,9.7-2.6,14
	c-0.2,0.5-0.4,1.8-0.6,3.4c4.1-0.8,13.6,1.8,13.6,1.5c-0.1,0.6,1.6,7.1,1.7,7.1c-1.1,0-2.1,0.1-3.2,0.1c-0.2,2.5-1.7,9.9,1.5,10.2
	c0.1,2.5,0,5.1-0.2,7.6c-9.4,0.1-0.7,12.6-2,18.4c-0.9,3.8-9.6,11.7-13.6,10.8c-0.3,2.8-0.1,5.7-0.4,8.6c-6.4,0.2-6.4,2.2-7,8.5
	c-4.2,0-8.7,0-7.8,5.6c4.5,0.2,5.7,3.7,9.8,4.2c3,0.4,6.2,0,9.3,0.2c3.4,0.2,13.3,0.7,11.5,6.5c-10.6,0.4-27.5,12-29.2,23.9
	c-4.3-0.6-10.7,6.3-5,9.7c5.2,3.1,9.5-0.1,7.5,8.2c-1.6,6.5-1.6,12.2-5.3,17.9c-3.3,5.1,2.7,8.8,1.6,14c-1.8,0.1-3.7-0.1-5.6,0
	c-1,4,2.2,8,0.5,11.9c2.8,0.2,4.4,2,3.6,4.9c-1.8,0.7-1.6,3-2.1,4.8c-3.2-0.3-6.1,4.9-7,7.4c-5.3,1.9-18.6-3.1-17,6.4
	c7.5,0.7,13.9,5.5,21.4,6.2c3.3,0.3,11.4-0.2,12.8,3.9c1.7,0.2,3.5,0.1,5.2,0.3c0.1,7.3-4.2,6.2-10.2,6.5
	c-7.1,9.5-2.2,29.6-3.1,40.4c-0.1,0-0.2,0-0.3,0l0,0.1l3.3,2.3l10.3,1.9l7.7,5.1h13.5l7.8-3.5l8,3.2l6,3l5.1,2.4l10.9-8.1l5.1-0.2
	l3.9-12.2c0,0,5.8-2.6,7.1-2.6h10.3c0,0,7.7-1.3,9.6-0.6c1.9,0.6,13.5,3.2,13.5,3.2s11.6,0.9,16.1-2.6c4.5-3.5,3.2-14.5,6.1-9
	c2.9,5.5,5.5,4.2,6.1,0c0.6-4.2,2.6-6.4,5.1-6.4s7.1-1,9,0s2.4-4.9,5.8-3.1c3.4,1.8,3.9,1.8,3.9,1.8l6.4,0.6c0,0,2.6-2.8,2.6-9.1
	s-4.9-18,2.7-22.4s12.1-5.8,13.4-6.4s9-2.4,9-2.4l7.7-2.6c0,0,3.3,0.5,6-0.1s8.8-2.6,8.8-2.6l10.3-5.1l2.6,1.9l1.6,1.3
	c0,0,1.6-0.6,3.5,0s3.2-1.3,4.5,1c1.3,2.3,2.3,4.8,2.3,4.8s-0.4,3.9,2.5,1.9c2.9-1.9,5.5-4.1,5.5-4.1l1.7-3.6l2.4-3.9l2.3-4.5
	l2.4-6.8l0.8-6.8l-3.9-0.3l2.6-4.8c0,0,2.8-2.6,4.3-4.5c1.5-1.9,7.9-3.9,7.9-3.9l5.1-2.6l2.6,4.1c0,0,5-0.2,6.4,1.1
	c1.4,1.3,4.5,7.1,4.5,8.4c0,1.3,2.7,7.7,2.7,7.7l2.5,2.6l1.9-3.2l4.5,2.6l1.3,4.4h7c1.3,0,3.9-2.1,3.9-2.1l1.7-6.9l-1-5.1l-3.2-4.1
	h-5.6l-6.6-3l-2.6-1.3v-5.1v-3.5l7.1,5.4l4.8-2.6v-5.1l2.9-3.1c0,0-0.6-0.1,3.2-0.1c3.8,0,3.8,0.6,3.8,0.6l7.1,5.8h8.4l9,3.2
	l3.9-9.6l2.5-2.7c0,0,1.6-1.8,5.9-1.8s3.2-2.7,8.4-2.7c5.1,0,6.4,1.6,9.6-0.5c3.2-2.1,1.1-5.8,5-8.4s2.7-2.2,6.5-2.2
	s10.3-9.3,14.1-8c3.9,1.3-1.1,3.9,8.8-0.6c9.9-4.5,6-2.6,7.3-7.7c1.3-5.1-1.9-10.3,2.6-15.4c4.5-5.1,9-11.6,14.8-15.4s9-7.1,9-7.1
	l3.2-1.9L1201.8,552.1z"/>
<path pointer-events="visible" class="st1" d="M1521.5,567l-5.1-12.4c-1.6,2.5-2.6,6.2-3.1,11.5c-6.2,1.4-11.6,4.8-17.9,5.7c-6.5,1-13.1-2.3-19.6-0.2
	c-12.4,3.9-17.2,6.8-31.6,6.4c-14.8-0.4-31.3,0.8-46,3.8c-0.6,0.1-1.2,0.2-1.8,0.3c-11.4,2.5-17.3-9.4-28.5-7.8
	c-23.2,3.2-42.8,29.7-41.8-9.8c0.3-13.2,2.7-28.1-7-38.7c-9.7-10.6,4.7-21.2-1.6-28.9c-0.1-0.4-0.2-0.8-0.3-1.2
	c-7.4-1.4-9.5,6.4-17.6,3.6c-0.6-5.3-2-10.6-1.5-16c-12.8-1.1-22.8,13.3-34.2,7.6c-3.4-10.8,10.3-16.8,5-28.3
	c-6.1-13.2-8.3-26.8-15.5-39.5c-6.6-11.7-38.3-66.5-54.1-48.1c-6.8,7.9-23.1,2.4-28.8-4.4c-3.7-4.5-6.4-9.8-10.8-13.6
	c-3-2.5-5.7-3.2-8.4-3.3c-0.8,7.1-1.9,14.5-0.6,15.7c-18.3,10.4-4.9-10-2.6-15.7c-2.6,0.2-5.3,0.4-8.4-0.2
	c-16.2-3.2-32.2-6.9-45.2-17.8c-5.1-4.2-20.6-18.4-5.1-19.7c1-10.2-2.1-41.6-12.9-45.8c-17.6-6.9-9.1-20.7,1.2-30.9
	c11.4-11.3,5.5-30.3,10.2-44.1c2.6-7.5,5.8-14,5.5-22.2c-0.3-7.5-7-12.1-7.1-19.4c-14.4-1.7-30.1-15.2-38.2-26.6
	c-3.9-5.6-5.7-6.8-12-4.9c-11.4,3.6-19.9-2.3-31.1-2c-2.1,6.3-4.3,15.4-12.4,14.2c0.7-4.4-3.3-12.5-9.1-8.8
	c-4.9,3.2,0.9,10.3-2,14.3c-8.9,12.4-22.3-4.9-20.6-14.9c-3,0.5-7.1-1.2-10-0.7c0.6-2.4-0.9-6.2-0.2-8.6c-6.4-0.6-15.9,1.3-21.5-2.5
	c-2.2-1.5-4.1-9.6-5.5-10.1c-2.1-0.6-4.3-0.7-6.4-0.2c-1.1,6.4-0.7,13.7-1.3,20.4c-8.5,3.1-4,13.6,1.1,17.9
	c-15.2,4.3-19.4-15.2-31.9-13.7c-0.1,1.2-0.6,2.7-0.8,4c-13.4-2.5-27.6,1.8-40.1-1.1c-0.2-7.7-1.3-18.6,6.3-23.5
	c5.1-3.3,9.5-3.9,7.7-11.5c-10.2-2.2-21.8,1.1-32.6,0.2c-0.4-11.7,0.9-23.7,0.5-35.4c-12.9-1.2-25.3,0.3-37.6-4.3
	c-15.7-5.9-30.2,3.7-45.8,0.2c2.3-10.9-30.2-21.8-37-30c-1.9,4.2-5.9,7.4-10.5,8.4c2.2,13.4,22.7,20.2,10.6,35.4
	c-3.3,4.1-10.2,2.5-12.5,7c-4.6,8.6,4.4,6.4,4.9,12.6c0.9,9.2,0.1,37.8-5.8,44.7c-15,17.4-28.5,14.4-49.6,16.9
	c-0.1,5.7,4.7,7.1,8.7,9.3c7.6,4.4,6.7,13.6,12.7,19.1c-0.9,0.8-3.9,3.8-4.7,4.4c-10.7,0.7-25.6-3-32,8.1
	c6.4-13.9-13.4-17.7-11.2-31.1c-5.3-1.2-10.4-0.3-15.6,1c3,12.7-7.9,14.2-12.7,23.6c-6.2,12,4,26.1-12.5,31.8
	c-31.3,10.8,12.5,33.3,10.8,49.7c1,0.1,11.2,1.1,11.2,1c0.4,10.8-4.2,14.1-13.2,18c-14.1,6.1-22.2,19.7-29.3,32.7
	c-2.5,4.7-6.6,27.9-10.1,29c-9.4,3-19.8-5.1-29-1.4c2.4,7.9-2.6,12-10.4,10.6c2.4,4.9,2.5,11.2-3.2,13.3c-1.3,9,3.5,10.7,6.4,18.1
	c4.3,11.1-2,22.4-6,32.4c-0.5,1.2-0.9,4.3-1.4,7.9c9.5-1.9,31.5,4.1,31.6,3.6c-0.2,1.5,3.7,16.5,4,16.5c-2.5,0.1-5,0.1-7.5,0.2
	c-0.5,5.8-3.8,23,3.6,23.6c0.2,5.8,0,11.9-0.5,17.6c-21.7,0.2-1.7,29.3-4.7,42.6c-2,8.9-22.3,27.1-31.5,25.1
	c-0.6,6.5-0.3,13.3-0.8,19.8c-14.8,0.6-14.9,5-16.3,19.7c-9.6,0-20.1,0.1-18,13c10.5,0.6,13.3,8.6,22.7,9.9
	c7.1,0.9,14.4,0.1,21.5,0.5c8,0.4,30.9,1.7,26.7,15c-24.5,0.9-63.8,27.8-67.8,55.4c-10.1-1.4-24.8,14.6-11.7,22.4
	c12,7.1,22.1-0.1,17.4,18.9c-3.7,15.2-3.7,28.3-12.4,41.5c-7.7,11.8,6.2,20.4,3.7,32.5c-4.3,0.2-8.6-0.1-12.9,0
	c-2.4,9.2,5.1,18.6,1.2,27.7c6.6,0.5,10.1,4.7,8.4,11.4c-4.3,1.7-3.6,7.1-4.8,11.1c-7.5-0.8-14.1,11.4-16.2,17.3
	c-12.3,4.3-43.1-7.3-39.4,14.9c17.5,1.6,32.1,12.8,49.6,14.3c7.7,0.7,26.5-0.5,29.6,9.1c3.9,0.4,8,0.3,12,0.6
	c0.2,17-9.8,14.4-23.6,15.1c-16.5,22-5,68.6-7.3,93.6c-0.2,0-0.5,0-0.8,0l0.1,0.3l7.8,5.4l23.9,4.5l17.9,11.9h31.3l18.1-8.1
	l18.6,7.4l13.9,7l11.9,5.6l25.4-18.7l11.9-0.5l9-28.3c0,0,13.4-6,16.4-6h23.9c0,0,17.9-3,22.4-1.5c4.5,1.5,31.3,7.5,31.3,7.5
	s26.9,2.2,37.3-6c10.4-8.1,7.5-33.6,14.2-20.9c6.7,12.8,12.7,9.7,14.2,0c1.5-9.7,6-14.9,11.9-14.9c6,0,16.4-2.2,20.9,0
	c4.5,2.2,5.5-11.4,13.4-7.2s9,4.2,9,4.2l14.9,1.5c0,0,6-6.5,6-21.1s-11.4-41.8,6.2-52c17.7-10.2,28.1-13.4,31.1-14.9
	s20.9-5.6,20.9-5.6l17.9-6.1c0,0,7.7,1.2,13.9-0.3c6.2-1.5,20.4-6.1,20.4-6.1l23.9-11.8l6,4.5l3.7,3c0,0,3.7-1.5,8.2,0
	s7.5-3,10.4,2.2s5.4,11.2,5.4,11.2s-1,9,5.8,4.5c6.7-4.5,12.7-9.4,12.7-9.4l4-8.5l5.6-9l5.3-10.4l5.6-15.7l2-15.7l-9-0.8l6-11.2
	c0,0,6.5-6,10-10.4c3.5-4.5,18.4-9,18.4-9l11.9-6l6,9.4c0,0,11.7-0.5,14.9,2.5c3.2,3,10.4,16.4,10.4,19.4s6.2,17.9,6.2,17.9l5.7,6
	l4.5-7.5l10.4,6l3.1,10.3h16.3c3,0,9-4.8,9-4.8l3.9-15.9l-2.4-11.9l-7.5-9.4h-12.9l-15.4-7l-6-3v-11.9v-8.1l16.4,12.5l11.2-6v-11.9
	l6.7-7.2c0,0-1.3-0.3,7.5-0.3c8.8,0,8.8,1.5,8.8,1.5l16.6,13.4h19.4l20.9,7.5l9-22.4l5.8-6.2c0,0,3.7-4.2,13.6-4.2
	c9.9,0,7.5-6.2,19.4-6.2c11.9,0,14.9,3.7,22.4-1.2c7.5-5,2.5-13.4,11.7-19.4c9.2-6,6.2-5.2,15.2-5.2c9,0,23.9-21.6,32.8-18.7
	s-2.5,9,20.4-1.5s13.9-6,16.9-17.9c3-11.9-4.4-23.9,6-35.8c10.4-11.9,20.8-26.9,34.2-35.8c13.4-9,20.9-16.4,20.9-16.4l7.5-4.4
	L1521.5,567z"/>
</svg>
